<mxfile host="Electron" agent="Mozilla/5.0 (X11; Linux x86_64) AppleWebKit/537.36 (KHTML, like Gecko) draw.io/26.0.16 Chrome/132.0.6834.196 Electron/34.2.0 Safari/537.36" version="26.0.16">
  <diagram name="Page-1" id="-1xzRfB_aGEeIZMp0Jnd">
    <mxGraphModel dx="819" dy="515" grid="1" gridSize="10" guides="1" tooltips="1" connect="1" arrows="1" fold="1" page="0" pageScale="1" pageWidth="850" pageHeight="1100" math="1" shadow="0">
      <root>
        <mxCell id="0" />
        <mxCell id="1" parent="0" />
        <mxCell id="qnqniSSHbR-nE7rtv0F3-93" value="" style="html=1;shadow=1;dashed=0;align=center;verticalAlign=middle;shape=mxgraph.arrows2.bendDoubleArrow;dy=6.95;dx=17.01;arrowHead=35.83;rounded=1;rotation=47;fillColor=#dae8fc;strokeColor=#6c8ebf;fontSize=15;" parent="1" vertex="1">
          <mxGeometry x="230.02" y="136.38" width="85.62" height="90" as="geometry" />
        </mxCell>
        <mxCell id="qnqniSSHbR-nE7rtv0F3-87" value="" style="group;fontSize=15;" parent="1" vertex="1" connectable="0">
          <mxGeometry x="270" y="220" width="140" height="80" as="geometry" />
        </mxCell>
        <mxCell id="qnqniSSHbR-nE7rtv0F3-90" value="" style="rounded=1;whiteSpace=wrap;html=1;arcSize=20;textShadow=0;shadow=1;fontSize=15;" parent="qnqniSSHbR-nE7rtv0F3-87" vertex="1">
          <mxGeometry x="-130" y="-20" width="260" height="90" as="geometry" />
        </mxCell>
        <mxCell id="qnqniSSHbR-nE7rtv0F3-25" value="" style="rounded=1;whiteSpace=wrap;html=1;strokeWidth=2;container=0;fillColor=#d5e8d4;strokeColor=#82b366;fontSize=15;" parent="qnqniSSHbR-nE7rtv0F3-87" vertex="1">
          <mxGeometry width="60" height="60" as="geometry" />
        </mxCell>
        <mxCell id="qnqniSSHbR-nE7rtv0F3-26" value="" style="endArrow=none;dashed=1;html=1;strokeWidth=2;rounded=0;entryX=1;entryY=0.5;entryDx=0;entryDy=0;fontSize=15;" parent="qnqniSSHbR-nE7rtv0F3-87" target="qnqniSSHbR-nE7rtv0F3-25" edge="1">
          <mxGeometry width="50" height="50" relative="1" as="geometry">
            <mxPoint y="30" as="sourcePoint" />
            <mxPoint x="37.5" y="-7.5" as="targetPoint" />
          </mxGeometry>
        </mxCell>
        <mxCell id="qnqniSSHbR-nE7rtv0F3-27" value="A" style="text;html=1;align=center;verticalAlign=middle;whiteSpace=wrap;rounded=0;fontSize=15;strokeWidth=2;container=0;" parent="qnqniSSHbR-nE7rtv0F3-87" vertex="1">
          <mxGeometry x="7.5" width="45" height="22.5" as="geometry" />
        </mxCell>
        <mxCell id="qnqniSSHbR-nE7rtv0F3-28" value="[1, 0]" style="text;html=1;align=center;verticalAlign=middle;whiteSpace=wrap;rounded=0;fontSize=15;strokeWidth=2;container=0;" parent="qnqniSSHbR-nE7rtv0F3-87" vertex="1">
          <mxGeometry x="7.5" y="30" width="45" height="22.5" as="geometry" />
        </mxCell>
        <mxCell id="qnqniSSHbR-nE7rtv0F3-43" value="Simulations" style="text;html=1;align=left;verticalAlign=middle;whiteSpace=wrap;rounded=0;fontSize=15;" parent="1" vertex="1">
          <mxGeometry x="50" y="210" width="100" height="40" as="geometry" />
        </mxCell>
        <mxCell id="qnqniSSHbR-nE7rtv0F3-47" value="A" style="rounded=1;whiteSpace=wrap;html=1;strokeWidth=2;fontSize=15;labelBackgroundColor=none;fillColor=#d5e8d4;strokeColor=#82b366;shadow=1;" parent="1" vertex="1">
          <mxGeometry x="110" y="110" width="40" height="40" as="geometry" />
        </mxCell>
        <mxCell id="qnqniSSHbR-nE7rtv0F3-48" value="B" style="rounded=1;whiteSpace=wrap;html=1;strokeWidth=2;fontSize=15;fillColor=#fff2cc;strokeColor=#d6b656;shadow=1;" parent="1" vertex="1">
          <mxGeometry x="150" y="110" width="40" height="40" as="geometry" />
        </mxCell>
        <mxCell id="qnqniSSHbR-nE7rtv0F3-46" value="$$p_{n=0}(z)$$" style="text;html=1;align=center;verticalAlign=middle;whiteSpace=wrap;rounded=1;fontSize=15;fillColor=#f5f5f5;strokeColor=#666666;strokeWidth=2;fontColor=#333333;shadow=1;" parent="1" vertex="1">
          <mxGeometry x="230.94" y="110" width="90" height="40" as="geometry" />
        </mxCell>
        <mxCell id="qnqniSSHbR-nE7rtv0F3-63" value="&lt;span style=&quot;color: rgb(51, 51, 51); font-family: Helvetica; font-style: normal; font-variant-ligatures: normal; font-variant-caps: normal; font-weight: 400; letter-spacing: normal; orphans: 2; text-align: center; text-indent: 0px; text-transform: none; widows: 2; word-spacing: 0px; -webkit-text-stroke-width: 0px; white-space: normal; background-color: rgb(255, 255, 255); text-decoration-thickness: initial; text-decoration-style: initial; text-decoration-color: initial; float: none; display: inline !important;&quot;&gt;$$p(z) = \dfrac{1}{1+e^{-\textcolor{red}{\textbf{z}}}}$$&lt;/span&gt;" style="rounded=1;whiteSpace=wrap;html=1;strokeWidth=2;fillColor=#f5f5f5;fontColor=#333333;strokeColor=#666666;shadow=1;fontSize=15;" parent="1" vertex="1">
          <mxGeometry x="198.44" y="400" width="155" height="60" as="geometry" />
        </mxCell>
        <mxCell id="qnqniSSHbR-nE7rtv0F3-60" value="Surrogate (One-Hot)" style="text;html=1;align=left;verticalAlign=middle;whiteSpace=wrap;rounded=0;fontSize=15;" parent="1" vertex="1">
          <mxGeometry x="50" y="250" width="100" height="40" as="geometry" />
        </mxCell>
        <mxCell id="qnqniSSHbR-nE7rtv0F3-64" value="Optimizer" style="text;html=1;align=left;verticalAlign=middle;whiteSpace=wrap;rounded=0;fontSize=15;" parent="1" vertex="1">
          <mxGeometry x="120" y="400" width="60" height="30" as="geometry" />
        </mxCell>
        <mxCell id="qnqniSSHbR-nE7rtv0F3-74" value="&lt;font style=&quot;color: rgb(204, 0, 0);&quot;&gt;log-probabilities&lt;/font&gt;" style="text;html=1;align=center;verticalAlign=middle;whiteSpace=wrap;rounded=0;fontSize=15;" parent="1" vertex="1">
          <mxGeometry x="251.56" y="460" width="110" height="30" as="geometry" />
        </mxCell>
        <mxCell id="qnqniSSHbR-nE7rtv0F3-83" value="" style="shape=flexArrow;endArrow=classic;startArrow=classic;html=1;rounded=0;startWidth=24.244897959183675;startSize=4.954285714285715;endWidth=24.244897959183675;endSize=3.6685714285714286;width=32;fillColor=#dae8fc;strokeColor=#6c8ebf;shadow=1;flowAnimation=0;fontSize=15;" parent="1" edge="1">
          <mxGeometry width="100" height="100" relative="1" as="geometry">
            <mxPoint x="275" y="390" as="sourcePoint" />
            <mxPoint x="274.25" y="300" as="targetPoint" />
          </mxGeometry>
        </mxCell>
        <mxCell id="qnqniSSHbR-nE7rtv0F3-77" value="Interpolation of fractional values" style="rounded=1;whiteSpace=wrap;html=1;strokeWidth=2;fontSize=15;strokeColor=default;dashed=1;fillColor=#FFFFFF;labelBackgroundColor=default;shadow=1;" parent="1" vertex="1">
          <mxGeometry x="211.25" y="325" width="128.75" height="40" as="geometry" />
        </mxCell>
        <mxCell id="qnqniSSHbR-nE7rtv0F3-89" value="" style="group;fontSize=15;" parent="1" vertex="1" connectable="0">
          <mxGeometry x="150" y="220" width="260" height="70" as="geometry" />
        </mxCell>
        <mxCell id="qnqniSSHbR-nE7rtv0F3-100" value="" style="group;fontSize=15;" parent="qnqniSSHbR-nE7rtv0F3-89" vertex="1" connectable="0">
          <mxGeometry width="60" height="60" as="geometry" />
        </mxCell>
        <mxCell id="qnqniSSHbR-nE7rtv0F3-13" value="" style="rounded=1;whiteSpace=wrap;html=1;strokeWidth=2;fillColor=#d5e8d4;strokeColor=#82b366;fontSize=15;" parent="qnqniSSHbR-nE7rtv0F3-100" vertex="1">
          <mxGeometry width="60" height="60" as="geometry" />
        </mxCell>
        <mxCell id="qnqniSSHbR-nE7rtv0F3-16" value="" style="endArrow=none;dashed=1;html=1;strokeWidth=2;rounded=0;entryX=1;entryY=0.5;entryDx=0;entryDy=0;fontSize=15;" parent="qnqniSSHbR-nE7rtv0F3-100" target="qnqniSSHbR-nE7rtv0F3-13" edge="1">
          <mxGeometry width="50" height="50" relative="1" as="geometry">
            <mxPoint y="30" as="sourcePoint" />
            <mxPoint x="37.5" y="-7.5" as="targetPoint" />
          </mxGeometry>
        </mxCell>
        <mxCell id="qnqniSSHbR-nE7rtv0F3-18" value="A" style="text;html=1;align=center;verticalAlign=middle;whiteSpace=wrap;rounded=0;fontSize=15;strokeWidth=2;" parent="qnqniSSHbR-nE7rtv0F3-100" vertex="1">
          <mxGeometry x="7.5" width="45" height="22.5" as="geometry" />
        </mxCell>
        <mxCell id="qnqniSSHbR-nE7rtv0F3-19" value="[1, 0]" style="text;html=1;align=center;verticalAlign=middle;whiteSpace=wrap;rounded=0;fontSize=15;strokeWidth=2;" parent="qnqniSSHbR-nE7rtv0F3-100" vertex="1">
          <mxGeometry x="7.5" y="30" width="45" height="22.5" as="geometry" />
        </mxCell>
        <mxCell id="qnqniSSHbR-nE7rtv0F3-86" value="" style="group;fontSize=15;" parent="1" vertex="1" connectable="0">
          <mxGeometry x="330" y="210" width="60" height="60" as="geometry" />
        </mxCell>
        <mxCell id="qnqniSSHbR-nE7rtv0F3-30" value="" style="rounded=1;whiteSpace=wrap;html=1;strokeWidth=2;container=0;fillColor=#fff2cc;strokeColor=#d6b656;fontSize=15;" parent="qnqniSSHbR-nE7rtv0F3-86" vertex="1">
          <mxGeometry width="60" height="60" as="geometry" />
        </mxCell>
        <mxCell id="qnqniSSHbR-nE7rtv0F3-31" value="" style="endArrow=none;dashed=1;html=1;strokeWidth=2;rounded=0;entryX=1;entryY=0.5;entryDx=0;entryDy=0;fontSize=15;" parent="qnqniSSHbR-nE7rtv0F3-86" target="qnqniSSHbR-nE7rtv0F3-30" edge="1">
          <mxGeometry width="50" height="50" relative="1" as="geometry">
            <mxPoint y="30" as="sourcePoint" />
            <mxPoint x="37.5" y="-7.5" as="targetPoint" />
          </mxGeometry>
        </mxCell>
        <mxCell id="qnqniSSHbR-nE7rtv0F3-32" value="B" style="text;html=1;align=center;verticalAlign=middle;whiteSpace=wrap;rounded=0;fontSize=15;strokeWidth=2;container=0;" parent="qnqniSSHbR-nE7rtv0F3-86" vertex="1">
          <mxGeometry x="7.5" width="45" height="22.5" as="geometry" />
        </mxCell>
        <mxCell id="qnqniSSHbR-nE7rtv0F3-33" value="[0, 1]" style="text;html=1;align=center;verticalAlign=middle;whiteSpace=wrap;rounded=0;fontSize=15;strokeWidth=2;container=0;" parent="qnqniSSHbR-nE7rtv0F3-86" vertex="1">
          <mxGeometry x="7.5" y="30" width="45" height="22.5" as="geometry" />
        </mxCell>
        <mxCell id="qnqniSSHbR-nE7rtv0F3-88" value="" style="group;fontSize=15;" parent="1" vertex="1" connectable="0">
          <mxGeometry x="211.25" y="210" width="60" height="60" as="geometry" />
        </mxCell>
        <mxCell id="qnqniSSHbR-nE7rtv0F3-21" value="" style="rounded=1;whiteSpace=wrap;html=1;strokeWidth=2;container=0;fillColor=#fff2cc;strokeColor=#d6b656;fontSize=15;" parent="qnqniSSHbR-nE7rtv0F3-88" vertex="1">
          <mxGeometry width="60" height="60" as="geometry" />
        </mxCell>
        <mxCell id="qnqniSSHbR-nE7rtv0F3-22" value="" style="endArrow=none;dashed=1;html=1;strokeWidth=2;rounded=0;entryX=1;entryY=0.5;entryDx=0;entryDy=0;fontSize=15;" parent="qnqniSSHbR-nE7rtv0F3-88" target="qnqniSSHbR-nE7rtv0F3-21" edge="1">
          <mxGeometry width="50" height="50" relative="1" as="geometry">
            <mxPoint y="30" as="sourcePoint" />
            <mxPoint x="37.5" y="-7.5" as="targetPoint" />
          </mxGeometry>
        </mxCell>
        <mxCell id="qnqniSSHbR-nE7rtv0F3-23" value="B" style="text;html=1;align=center;verticalAlign=middle;whiteSpace=wrap;rounded=0;fontSize=15;strokeWidth=2;container=0;" parent="qnqniSSHbR-nE7rtv0F3-88" vertex="1">
          <mxGeometry x="7.5" width="45" height="22.5" as="geometry" />
        </mxCell>
        <mxCell id="qnqniSSHbR-nE7rtv0F3-24" value="[0, 1]" style="text;html=1;align=center;verticalAlign=middle;whiteSpace=wrap;rounded=0;fontSize=15;strokeWidth=2;container=0;" parent="qnqniSSHbR-nE7rtv0F3-88" vertex="1">
          <mxGeometry x="7.5" y="30" width="45" height="22.5" as="geometry" />
        </mxCell>
        <mxCell id="qnqniSSHbR-nE7rtv0F3-94" value="&lt;i&gt;&lt;font style=&quot;color: rgb(128, 128, 128);&quot;&gt;sampling&lt;/font&gt;&lt;/i&gt;" style="text;html=1;align=center;verticalAlign=middle;whiteSpace=wrap;rounded=0;fontSize=15;fillColor=none;opacity=90;" parent="1" vertex="1">
          <mxGeometry x="151.25" y="160" width="60" height="30" as="geometry" />
        </mxCell>
        <mxCell id="qnqniSSHbR-nE7rtv0F3-155" style="edgeStyle=orthogonalEdgeStyle;rounded=0;orthogonalLoop=1;jettySize=auto;html=1;fontSize=15;" parent="1" edge="1">
          <mxGeometry relative="1" as="geometry">
            <mxPoint x="380" y="429.97" as="sourcePoint" />
            <mxPoint x="390" y="130" as="targetPoint" />
            <Array as="points">
              <mxPoint x="440" y="430" />
              <mxPoint x="440" y="130" />
            </Array>
          </mxGeometry>
        </mxCell>
        <mxCell id="qnqniSSHbR-nE7rtv0F3-147" value="&lt;font color=&quot;#808080&quot;&gt;&lt;i&gt;update sampling probabilities&lt;/i&gt;&lt;/font&gt;" style="text;html=1;align=left;verticalAlign=middle;whiteSpace=wrap;rounded=0;fontSize=15;fillColor=none;opacity=90;" parent="1" vertex="1">
          <mxGeometry x="460" y="250" width="80" height="60" as="geometry" />
        </mxCell>
        <mxCell id="qnqniSSHbR-nE7rtv0F3-148" value="$$p_{n=1}(z)$$" style="text;html=1;align=center;verticalAlign=middle;whiteSpace=wrap;rounded=1;fontSize=15;fillColor=#f5f5f5;strokeColor=#666666;strokeWidth=2;fontColor=#333333;shadow=1;" parent="1" vertex="1">
          <mxGeometry x="390" y="320" width="100" height="40" as="geometry" />
        </mxCell>
        <mxCell id="qnqniSSHbR-nE7rtv0F3-210" value="Categories" style="text;html=1;align=center;verticalAlign=middle;whiteSpace=wrap;rounded=0;fontSize=15;" parent="1" vertex="1">
          <mxGeometry x="100" y="70" width="100" height="40" as="geometry" />
        </mxCell>
      </root>
    </mxGraphModel>
  </diagram>
</mxfile>
